<svg xmlns="http://www.w3.org/2000/svg" viewBox="0 0 1189.94 1103.09"><defs><style>.cls-1,.cls-2{fill:#ec008c;}.cls-2{opacity:0.2;}</style></defs><g id="Layer_2" data-name="Layer 2"><g id="Layer_2-2" data-name="Layer 2"><path class="cls-1" d="M267.51,392.53c-25.85-42.12-61.61-75-100.69-92.46-41.41-18.55-81.79-18-113.69,1.6S2.44,357,.22,402.3c-2.09,42.78,11,89.54,36.84,131.65s61.61,75,100.7,92.46c20.12,9,40,13.51,58.76,13.51a103.73,103.73,0,0,0,54.92-15.11c31.91-19.57,50.7-55.31,52.91-100.63.14-3,.22-5.95.22-8.94C304.57,474.94,291.57,431.72,267.51,392.53Zm.88,129.89c-1.61,33.08-14.32,58.54-35.78,71.71s-49.91,13-80.14-.57C119.93,579,89.84,551.13,67.75,515.12S34.44,439.67,36.18,404.06C37.8,371,50.5,345.52,72,332.35c10.57-6.49,22.84-9.73,36.19-9.73,13.74,0,28.62,3.43,43.95,10.3,32.54,14.58,62.63,42.43,84.73,78.44S270.13,486.8,268.39,522.42Z"/><path class="cls-2" d="M268.39,522.42c-1.61,33.08-14.32,58.54-35.78,71.71s-49.91,13-80.14-.57C119.93,579,89.84,551.13,67.75,515.12S34.44,439.67,36.18,404.06C37.8,371,50.5,345.52,72,332.35c10.57-6.49,22.84-9.73,36.19-9.73,13.74,0,28.62,3.43,43.95,10.3,32.54,14.58,62.63,42.43,84.73,78.44S270.13,486.8,268.39,522.42Z"/><path class="cls-1" d="M535.91,165c-25-51.41-62.38-93.24-105.32-117.78C385.44,21.41,339.42,17.48,301,36.15S237.21,93.42,229.6,144.87c-7.25,48.92,2.52,104.18,27.49,155.59s62.38,93.24,105.32,117.78c26.38,15.08,53,22.69,78.34,22.69A116.42,116.42,0,0,0,492,429.32C530.43,410.65,555.79,372,563.4,320.6,570.65,271.67,560.88,216.41,535.91,165Zm-8.12,150.32c-5.82,39.32-24.11,68.3-51.51,81.61s-61.5,9.78-96-9.94c-36.71-21-69-57.3-90.81-102.26S259,192,265.21,150.14c5.82-39.32,24.11-68.3,51.51-81.61a80.66,80.66,0,0,1,35.53-7.93c19.09,0,39.71,6,60.47,17.87,36.71,21,69,57.3,90.8,102.26S534,273.49,527.79,315.32Z"/><path class="cls-2" d="M527.79,315.32c-5.82,39.32-24.11,68.3-51.51,81.61s-61.5,9.78-96-9.94c-36.71-21-69-57.3-90.81-102.26S259,192,265.21,150.14c5.82-39.32,24.11-68.3,51.51-81.61a80.66,80.66,0,0,1,35.53-7.93c19.09,0,39.71,6,60.47,17.87,36.71,21,69,57.3,90.8,102.26S534,273.49,527.79,315.32Z"/><path class="cls-1" d="M919.45,84.5C897.93,38,863.19,8.52,821.64,1.56s-84,9.57-119.49,46.53c-33.75,35.14-57.45,85.07-66.76,140.58s-3.15,110.45,17.3,154.66c21.52,46.53,56.26,76,97.81,82.94a113,113,0,0,0,18.68,1.56c35.41,0,70.62-16.66,100.81-48.1,33.75-35.13,57.45-85.06,66.75-140.57S939.9,128.71,919.45,84.5ZM901.24,233.21C893.12,281.65,872.8,324.83,844,354.8c-27,28.13-58.13,40.9-87.59,36s-54.7-27.15-71.07-62.55c-17.45-37.71-22.58-85.15-14.47-133.6S699.33,103,728.11,73c23.22-24.17,49.45-37,75.07-37a76.26,76.26,0,0,1,12.52,1c29.46,4.94,54.7,27.15,71.07,62.55,12.05,26,18.22,56.71,18.22,89.15A269.7,269.7,0,0,1,901.24,233.21Z"/><path class="cls-2" d="M905,188.76a269.7,269.7,0,0,1-3.75,44.45C893.12,281.65,872.8,324.83,844,354.8c-27,28.13-58.13,40.9-87.59,36s-54.7-27.15-71.07-62.55c-17.45-37.71-22.58-85.15-14.47-133.6S699.33,103,728.11,73c23.22-24.17,49.45-37,75.07-37a76.26,76.26,0,0,1,12.52,1c29.46,4.94,54.7,27.15,71.07,62.55C898.82,125.65,905,156.32,905,188.76Z"/><path class="cls-1" d="M1188.82,399.78c-4.83-40.48-24.68-73.57-55.88-93.16s-69.63-23.1-108.19-9.87c-37.2,12.77-70.23,39.78-93,76.07S899,450.6,903.62,489.65c4.83,40.48,24.67,73.57,55.88,93.16a116.69,116.69,0,0,0,62.62,17.76,140.43,140.43,0,0,0,45.57-7.89c37.19-12.77,70.23-39.78,93-76.07S1193.48,438.83,1188.82,399.78Zm-58.6,97.68h0c-18.42,29.34-44.78,51.06-74.22,61.16-28.07,9.63-55.54,7.39-77.36-6.31s-35.76-37.47-39.28-66.94c-3.68-30.9,4.43-64.07,22.86-93.42s44.78-51.06,74.21-61.16a104.3,104.3,0,0,1,33.77-5.89,81.16,81.16,0,0,1,43.59,12.2c21.82,13.69,35.77,37.47,39.28,66.94C1156.76,435,1148.65,468.13,1130.22,497.46Z"/><path class="cls-2" d="M1130.22,497.46h0c-18.42,29.34-44.78,51.06-74.22,61.16-28.07,9.63-55.54,7.39-77.36-6.31s-35.76-37.47-39.28-66.94c-3.68-30.9,4.43-64.07,22.86-93.42s44.78-51.06,74.21-61.16a104.3,104.3,0,0,1,33.77-5.89,81.16,81.16,0,0,1,43.59,12.2c21.82,13.69,35.77,37.47,39.28,66.94C1156.76,435,1148.65,468.13,1130.22,497.46Z"/><path class="cls-1" d="M1060.83,842c-9.76-61.15-38.58-123.49-85.67-185.26-37.1-48.68-85.62-97.2-144.23-144.23-96.19-77.2-186.3-124-195.37-128.67l-2.06-1.24a18,18,0,0,0-17.42-.67c-3.9,2-96.8,49.19-196.19,128.76-58.66,47-107.23,95.43-144.36,144.06-47.13,61.74-76,124-85.74,185.21-9.79,61.38,1.37,117.75,32.27,163,27.62,40.47,69.38,70.56,120.74,87a276,276,0,0,0,84.11,13.13,266.75,266.75,0,0,0,83.27-13.18A230.22,230.22,0,0,0,585,1049.15a211.61,211.61,0,0,0,39.75-43.26,201.6,201.6,0,0,0,40.39,43.26c21.57,17.23,46.76,30.44,74.86,39.26,53.69,16.83,113.49,16.41,168.4-1.18,51.08-16.37,92.59-45.89,120-85.36C1059.23,957.52,1070.45,902.22,1060.83,842ZM625.54,948.21C598.87,933,548,896.73,541.74,857.53c-3.65-22.92,12-31.55,21.71-34.65a47,47,0,0,1,14.14-2.16c12.74,0,25.49,5.11,31.18,16.28l.24.53a18,18,0,0,0,31.56,2l.18-.29a14.88,14.88,0,0,0,.88-1.56c8.37-16.79,29.58-20.5,45.29-15.47,7.88,2.52,25.78,11.07,21.83,35.8C702.57,896.74,652.39,932.8,625.54,948.21ZM897.36,1053a250.86,250.86,0,0,1-75.94,11.64c-67.42,0-136.42-26.72-172.89-88.21a330.94,330.94,0,0,0,35-24.36c35.48-28.4,55.91-58.12,60.73-88.33,2.94-18.38-.53-35.45-10-49.36-8.43-12.34-21-21.47-36.38-26.39a79.93,79.93,0,0,0-49,0,69.25,69.25,0,0,0-23.56,13.21,68.82,68.82,0,0,0-23.81-12.9,81.81,81.81,0,0,0-49.06.31c-33.63,10.78-51.79,40.06-46.28,74.6,4.82,30.2,25.23,59.93,60.67,88.37a326.81,326.81,0,0,0,34.5,24.08c-52,87-164.27,106.73-247.57,80-74.49-23.87-147.35-91.6-128.45-210.09,20.1-125.92,128.84-236.13,216.53-306.42,79.81-64,157.22-107.4,182.14-120.77,21,11.19,101.24,55.42,184.39,122.15,87.83,70.48,196.76,181,216.88,307.08C1040.9,945.52,993.08,1022.27,897.36,1053Z"/><path class="cls-2" d="M897.36,1053a250.86,250.86,0,0,1-75.94,11.64c-67.42,0-136.42-26.72-172.89-88.21a330.94,330.94,0,0,0,35-24.36c35.48-28.4,55.91-58.12,60.73-88.33,2.94-18.38-.53-35.45-10-49.36-8.43-12.34-21-21.47-36.38-26.39a79.93,79.93,0,0,0-49,0,69.25,69.25,0,0,0-23.56,13.21,68.82,68.82,0,0,0-23.81-12.9,81.81,81.81,0,0,0-49.06.31c-33.63,10.78-51.79,40.06-46.28,74.6,4.82,30.2,25.23,59.93,60.67,88.37a326.81,326.81,0,0,0,34.5,24.08c-52,87-164.27,106.73-247.57,80-74.49-23.87-147.35-91.6-128.45-210.09,20.1-125.92,128.84-236.13,216.53-306.42,79.81-64,157.22-107.4,182.14-120.77,21,11.19,101.24,55.42,184.39,122.15,87.83,70.48,196.76,181,216.88,307.08C1040.9,945.52,993.08,1022.27,897.36,1053Z"/><path class="cls-1" d="M708.75,858c-6.18,38.72-56.36,74.78-83.21,90.19C598.87,933,548,896.73,541.74,857.53c-3.65-22.92,12-31.55,21.71-34.65a47,47,0,0,1,14.14-2.16c12.74,0,25.49,5.11,31.18,16.28l.24.53a18,18,0,0,0,31.56,2l.18-.29a14.88,14.88,0,0,0,.88-1.56c8.37-16.79,29.58-20.5,45.29-15.47C694.8,824.74,712.7,833.29,708.75,858Z"/></g></g></svg>